<?xml version="1.0" encoding="iso-8859-1"?>
<!-- Generator: Adobe Illustrator 19.0.0, SVG Export Plug-In . SVG Version: 6.00 Build 0)  -->
<svg version="1.1" id="Layer_1" xmlns="http://www.w3.org/2000/svg" xmlns:xlink="http://www.w3.org/1999/xlink" x="0px" y="0px"
	 viewBox="0 0 512 512" style="enable-background:new 0 0 512 512;" xml:space="preserve">
<g>
	<path style="fill:#88888F;" d="M481.055,253.186c-4.662,0-8.44-3.779-8.44-8.44v-123.78c0-32.576-26.502-59.077-59.077-59.077
		c-21.468,0-41.281,11.676-51.704,30.472c-2.26,4.076-7.394,5.549-11.473,3.288c-4.076-2.261-5.548-7.398-3.287-11.473
		c13.396-24.159,38.865-39.165,66.464-39.165c41.883,0,75.956,34.073,75.956,75.956v123.78
		C489.495,249.407,485.717,253.186,481.055,253.186z"/>
	<path style="fill:#88888F;" d="M87.202,466.99c-1.268,0-2.555-0.287-3.767-0.893c-4.169-2.084-5.859-7.153-3.774-11.323
		l11.253-22.505c2.085-4.169,7.156-5.858,11.323-3.774c4.169,2.084,5.859,7.153,3.774,11.323l-11.253,22.505
		C93.279,465.28,90.298,466.99,87.202,466.99z"/>
	<path style="fill:#88888F;" d="M424.798,466.99c-3.096,0-6.076-1.709-7.555-4.668l-11.253-22.505
		c-2.084-4.169-0.395-9.239,3.774-11.323c4.171-2.085,9.241-0.395,11.324,3.774l11.253,22.505c2.084,4.169,0.395,9.238-3.774,11.323
		C427.353,466.703,426.066,466.99,424.798,466.99z"/>
</g>
<path style="fill:#EDEDED;" d="M8.44,244.746v33.758l0,0c12.43,0,22.505,10.076,22.505,22.505v33.758
	c0,55.933,45.342,101.275,101.275,101.275h247.56c55.933,0,101.275-45.342,101.275-101.275V301.01
	c0-12.43,10.076-22.505,22.505-22.505l0,0v-33.758H8.44z"/>
<path style="fill:#D8D8DA;" d="M436.044,244.746v33.758c-12.43,0-22.505,10.076-22.505,22.505v33.758
	c0,55.933-45.342,101.275-101.275,101.275h67.516c55.933,0,101.275-45.342,101.275-101.275V301.01
	c0-12.43,10.076-22.505,22.505-22.505v-33.758H436.044z"/>
<path style="fill:#EDEDED;" d="M346.022,87.208L346.022,87.208c-18.645,0-33.758,15.114-33.758,33.758l0,0h67.516l0,0
	C379.78,102.322,364.667,87.208,346.022,87.208z"/>
<g>
	<circle style="fill:#B4D8F1;" cx="171.604" cy="194.11" r="16.879"/>
	<circle style="fill:#B4D8F1;" cx="250.374" cy="160.352" r="16.879"/>
	<circle style="fill:#B4D8F1;" cx="329.143" cy="194.11" r="16.879"/>
</g>
<g>
	<path style="fill:#2E2D31;" d="M481.055,326.329c-4.662,0-8.44,3.779-8.44,8.44c0,51.19-41.646,92.835-92.835,92.835H177.231
		c-4.661,0-8.44,3.779-8.44,8.44s3.779,8.44,8.44,8.44H379.78c9.269,0,18.272-1.16,26.875-3.335l10.588,21.175
		c1.479,2.957,4.459,4.668,7.555,4.668c1.268,0,2.555-0.287,3.769-0.893c4.168-2.084,5.858-7.153,3.774-11.323l-9.541-19.082
		c39.174-16.761,66.695-55.688,66.695-100.924C489.495,330.107,485.717,326.329,481.055,326.329z"/>
	<path style="fill:#2E2D31;" d="M503.56,236.307h-14.066V120.966c0-41.883-34.073-75.956-75.956-75.956
		c-25.561,0-49.286,12.878-63.294,33.97c-1.389-0.138-2.797-0.212-4.222-0.212c-23.268,0-42.198,18.929-42.198,42.198
		c0,4.661,3.778,8.44,8.44,8.44h67.516c4.662,0,8.44-3.779,8.44-8.44c0-15.59-8.504-29.222-21.111-36.528
		c11.106-14.095,28.167-22.549,46.43-22.549c32.574,0,59.077,26.501,59.077,59.077v115.341H8.44c-4.661,0-8.44,3.779-8.44,8.44
		v33.758c0,4.661,3.779,8.44,8.44,8.44c7.757,0,14.066,6.309,14.066,14.066v33.758c0,45.236,27.521,84.162,66.696,100.924
		l-9.541,19.082c-2.085,4.169-0.395,9.238,3.774,11.323c1.212,0.607,2.499,0.893,3.767,0.893c3.096,0,6.076-1.71,7.555-4.668
		l10.588-21.175c8.603,2.174,17.606,3.335,26.875,3.335c4.661,0,8.44-3.779,8.44-8.44c0-4.661-3.779-8.44-8.44-8.44
		c-51.19,0-92.835-41.645-92.835-92.835V301.01c0-14.139-9.531-26.093-22.505-29.775v-18.049h478.242v18.049
		c-12.974,3.682-22.505,15.637-22.505,29.775c0,4.661,3.778,8.44,8.44,8.44s8.44-3.779,8.44-8.44
		c0-7.757,6.309-14.066,14.066-14.066c4.662,0,8.44-3.779,8.44-8.44v-33.758C512,240.085,508.222,236.307,503.56,236.307z
		 M322.149,112.526c3.484-9.824,12.87-16.879,23.873-16.879c11.003,0,20.389,7.055,23.873,16.879H322.149z"/>
	<path style="fill:#2E2D31;" d="M171.604,219.427c13.961,0,25.319-11.357,25.319-25.319s-11.357-25.319-25.319-25.319
		c-13.961,0-25.319,11.357-25.319,25.319C146.286,208.07,157.643,219.427,171.604,219.427z M171.604,185.669
		c4.654,0,8.44,3.785,8.44,8.44s-3.785,8.44-8.44,8.44c-4.654,0-8.44-3.785-8.44-8.44S166.95,185.669,171.604,185.669z"/>
	<path style="fill:#2E2D31;" d="M250.374,185.669c13.96,0,25.319-11.357,25.319-25.319c0-13.961-11.359-25.319-25.319-25.319
		c-13.961,0-25.319,11.357-25.319,25.319S236.412,185.669,250.374,185.669z M250.374,151.911c4.654,0,8.44,3.785,8.44,8.44
		c0,4.654-3.785,8.44-8.44,8.44c-4.654,0-8.44-3.785-8.44-8.44C241.934,155.696,245.719,151.911,250.374,151.911z"/>
	<path style="fill:#2E2D31;" d="M354.462,194.109c0-13.961-11.359-25.319-25.319-25.319c-13.96,0-25.319,11.357-25.319,25.319
		s11.359,25.319,25.319,25.319C343.103,219.427,354.462,208.07,354.462,194.109z M320.703,194.109c0-4.654,3.785-8.44,8.44-8.44
		c4.654,0,8.44,3.785,8.44,8.44s-3.785,8.44-8.44,8.44C324.489,202.548,320.703,198.763,320.703,194.109z"/>
</g>
<g>
</g>
<g>
</g>
<g>
</g>
<g>
</g>
<g>
</g>
<g>
</g>
<g>
</g>
<g>
</g>
<g>
</g>
<g>
</g>
<g>
</g>
<g>
</g>
<g>
</g>
<g>
</g>
<g>
</g>
</svg>
